<?xml version="1.0" encoding="utf-8"?>
<!-- Generator: Adobe Illustrator 16.0.3, SVG Export Plug-In . SVG Version: 6.00 Build 0)  -->
<!DOCTYPE svg PUBLIC "-//W3C//DTD SVG 1.1//EN" "http://www.w3.org/Graphics/SVG/1.1/DTD/svg11.dtd">
<svg version="1.1" id="Livello_1" xmlns="http://www.w3.org/2000/svg" xmlns:xlink="http://www.w3.org/1999/xlink" x="0px" y="0px"
	 width="595.28px" height="232.157px" viewBox="0 0 595.28 232.157" enable-background="new 0 0 595.28 232.157"
	 xml:space="preserve">
<polygon fill="#002D73" points="56.688,57.511 56.711,77.16 57.088,76.486 92.869,140.966 56.783,140.966 56.8,160.814 
	104.179,160.814 118.698,187.514 144.122,187.514 71.518,57.511 "/>
<path fill="#002D73" d="M211.59,126.501c6.179-6.861,9.276-15.932,9.276-27.208c0-12.866-3.79-23.069-11.375-30.61
	c-7.592-7.538-18.04-11.304-31.34-11.304h-44.049v19.854h38.968c17.509,0,26.26,7.353,26.26,22.062
	c0,13.723-8.111,20.587-24.334,20.587h-40.894v19.855h29.076l32.332,47.833h24.502l-32.059-48.933
	C197.991,136.921,205.869,132.875,211.59,126.501z"/>
<path fill="#007934" d="M252.802,187.583H232.93l0.004-67.328h37.162c16.318,0,24.478-6.903,24.478-20.707
	c0-14.797-8.631-22.197-25.895-22.197h-35.745V57.38h40.855c13.032,0,23.355,3.79,30.994,11.368
	c7.628,7.589,11.446,17.729,11.446,30.421c0,13.325-3.962,23.487-11.883,30.514c-7.92,7.029-19.462,10.541-34.616,10.541
	l-16.943-0.001L252.802,187.583z"/>
<polygon fill="#007934" points="342.604,140.836 377.635,77.708 377.492,57.38 363.955,57.38 291.176,187.705 316.598,187.705 
	331.292,160.684 378.224,160.684 378.082,140.836 "/>
<g>
	<path fill="#002D73" d="M55.188,214.526l6.267-19.226h2.328l6.682,19.226h-2.461l-1.903-5.823h-6.825l-1.794,5.823H55.188z
		 M59.897,206.633h5.535l-1.704-5.328c-0.521-1.617-0.906-2.945-1.158-3.986c-0.208,1.232-0.501,2.458-0.879,3.674L59.897,206.633z"
		/>
	<path fill="#002D73" d="M72.136,215.679l1.949,0.342c0.082,0.708,0.308,1.225,0.678,1.548c0.499,0.437,1.176,0.656,2.039,0.656
		c0.928,0,1.645-0.219,2.149-0.656c0.504-0.438,0.846-1.049,1.024-1.836c0.104-0.48,0.152-1.489,0.144-3.029
		c-0.875,1.214-1.966,1.823-3.272,1.823c-1.625,0-2.884-0.69-3.775-2.073c-0.891-1.379-1.335-3.037-1.335-4.969
		c0-1.329,0.202-2.555,0.611-3.68c0.408-1.121,1.001-1.989,1.775-2.602c0.776-0.611,1.688-0.918,2.734-0.918
		c1.396,0,2.546,0.664,3.452,1.994v-1.68h1.848v12.041c0,2.167-0.187,3.706-0.563,4.61c-0.374,0.904-0.968,1.62-1.781,2.144
		C79,219.917,78,220.18,76.812,220.18c-1.41,0-2.549-0.374-3.417-1.122C72.526,218.309,72.107,217.185,72.136,215.679z
		 M73.795,207.313c0,1.828,0.308,3.16,0.924,4.001c0.617,0.837,1.389,1.257,2.316,1.257c0.92,0,1.693-0.416,2.316-1.25
		c0.624-0.838,0.936-2.146,0.936-3.929c0-1.704-0.321-2.99-0.964-3.856c-0.641-0.865-1.415-1.3-2.321-1.3
		c-0.891,0-1.648,0.429-2.27,1.279C74.108,204.369,73.795,205.635,73.795,207.313z"/>
	<path fill="#002D73" d="M93.848,210.04l2.071,0.303c-0.325,1.426-0.93,2.531-1.814,3.318c-0.882,0.786-2.01,1.182-3.384,1.182
		c-1.73,0-3.1-0.628-4.113-1.883c-1.014-1.253-1.52-3.014-1.52-5.279c0-2.343,0.513-4.163,1.536-5.457
		c1.024-1.293,2.352-1.941,3.986-1.941c1.581,0,2.872,0.634,3.875,1.901c1.002,1.269,1.502,3.052,1.502,5.352
		c0,0.141-0.003,0.35-0.011,0.63h-8.817c0.073,1.529,0.441,2.702,1.102,3.516c0.661,0.813,1.485,1.219,2.471,1.219
		c0.735,0,1.364-0.227,1.882-0.683C93.132,211.764,93.545,211.036,93.848,210.04z M87.269,206.225h6.603
		c-0.089-1.171-0.341-2.05-0.757-2.636c-0.64-0.909-1.466-1.364-2.483-1.364c-0.921,0-1.695,0.364-2.321,1.09
		C87.683,204.038,87.336,205.008,87.269,206.225z"/>
	<path fill="#002D73" d="M99.007,214.526v-13.929h1.804v1.981c0.868-1.53,2.122-2.295,3.763-2.295c0.712,0,1.368,0.15,1.965,0.452
		c0.599,0.301,1.045,0.697,1.342,1.187c0.296,0.491,0.505,1.072,0.624,1.745c0.074,0.438,0.112,1.203,0.112,2.295v8.565h-2.004
		v-8.472c0-0.962-0.08-1.68-0.235-2.158c-0.155-0.478-0.431-0.859-0.83-1.143c-0.396-0.282-0.862-0.426-1.396-0.426
		c-0.854,0-1.59,0.32-2.21,0.959c-0.62,0.637-0.929,1.848-0.929,3.632v7.606H99.007z"/>
	<path fill="#002D73" d="M111.201,214.526v-1.915l7.527-10.178c-0.854,0.051-1.607,0.081-2.261,0.081h-4.821v-1.917h9.665v1.562
		l-6.402,8.838l-1.236,1.615c0.897-0.078,1.741-0.117,2.527-0.117h5.467v2.032H111.201z"/>
	<path fill="#002D73" d="M124.24,198.014v-2.713h2.004v2.713H124.24z M124.24,214.526v-13.929h2.004v13.929H124.24z"/>
	<path fill="#002D73" d="M137.581,212.808c-0.742,0.743-1.457,1.27-2.142,1.573c-0.688,0.307-1.424,0.461-2.21,0.461
		c-1.299,0-2.297-0.375-2.995-1.122c-0.698-0.748-1.047-1.703-1.047-2.864c0-0.684,0.13-1.308,0.396-1.872
		c0.264-0.562,0.608-1.015,1.036-1.355c0.425-0.342,0.907-0.6,1.442-0.774c0.394-0.123,0.986-0.241,1.782-0.355
		c1.616-0.227,2.809-0.499,3.573-0.811c0.007-0.325,0.012-0.531,0.012-0.618c0-0.961-0.19-1.64-0.568-2.032
		c-0.512-0.534-1.273-0.802-2.284-0.802c-0.941,0-1.638,0.198-2.087,0.584c-0.449,0.39-0.78,1.079-0.995,2.066l-1.96-0.313
		c0.179-0.989,0.472-1.787,0.88-2.396c0.409-0.607,0.998-1.074,1.771-1.402c0.771-0.33,1.667-0.493,2.683-0.493
		c1.009,0,1.829,0.14,2.461,0.419c0.63,0.28,1.094,0.632,1.392,1.056c0.297,0.424,0.505,0.96,0.623,1.607
		c0.067,0.401,0.1,1.127,0.1,2.176v3.147c0,2.195,0.043,3.583,0.128,4.167c0.084,0.58,0.254,1.138,0.506,1.67h-2.093
		C137.775,214.036,137.642,213.463,137.581,212.808z M137.415,207.536c-0.728,0.35-1.819,0.646-3.272,0.893
		c-0.826,0.14-1.408,0.297-1.75,0.472c-0.34,0.174-0.604,0.431-0.79,0.766c-0.186,0.337-0.278,0.71-0.278,1.122
		c0,0.628,0.201,1.155,0.606,1.573c0.405,0.419,0.997,0.63,1.776,0.63c0.772,0,1.458-0.199,2.06-0.597
		c0.601-0.396,1.042-0.942,1.324-1.634c0.216-0.533,0.324-1.318,0.324-2.36V207.536z"/>
	<path fill="#002D73" d="M148.945,214.526v-19.226h7.236c1.456,0,2.562,0.171,3.319,0.516c0.756,0.347,1.362,0.956,1.814,1.83
		c0.452,0.875,0.68,1.84,0.68,2.896c0,1.368-0.375,2.518-1.125,3.452c-0.75,0.936-1.909,1.529-3.474,1.782
		c0.572,0.325,1.005,0.644,1.303,0.958c0.631,0.682,1.228,1.536,1.793,2.557l2.84,5.233h-2.717l-2.161-4
		c-0.63-1.152-1.15-2.038-1.559-2.649c-0.407-0.611-0.773-1.04-1.095-1.286c-0.324-0.243-0.653-0.415-0.985-0.513
		c-0.246-0.06-0.647-0.088-1.204-0.088h-2.504v8.536H148.945z M151.104,203.785h4.643c0.987,0,1.76-0.12,2.316-0.36
		c0.557-0.241,0.979-0.626,1.27-1.155c0.289-0.529,0.433-1.103,0.433-1.727c0-0.907-0.28-1.654-0.841-2.24
		c-0.561-0.585-1.445-0.88-2.655-0.88h-5.167V203.785z"/>
	<path fill="#002D73" d="M173.785,210.04l2.071,0.303c-0.326,1.426-0.93,2.531-1.813,3.318c-0.884,0.786-2.012,1.182-3.385,1.182
		c-1.731,0-3.101-0.628-4.114-1.883c-1.013-1.253-1.52-3.014-1.52-5.279c0-2.343,0.513-4.163,1.537-5.457
		c1.024-1.293,2.352-1.941,3.985-1.941c1.582,0,2.873,0.634,3.875,1.901c1.002,1.269,1.504,3.052,1.504,5.352
		c0,0.141-0.004,0.35-0.011,0.63h-8.819c0.074,1.529,0.443,2.702,1.102,3.516c0.66,0.813,1.486,1.219,2.473,1.219
		c0.735,0,1.363-0.227,1.882-0.683C173.069,211.764,173.482,211.036,173.785,210.04z M167.206,206.225h6.603
		c-0.089-1.171-0.341-2.05-0.756-2.636c-0.639-0.909-1.467-1.364-2.484-1.364c-0.92,0-1.695,0.364-2.32,1.09
		C167.62,204.038,167.272,205.008,167.206,206.225z"/>
	<path fill="#002D73" d="M178.577,215.679l1.948,0.342c0.081,0.708,0.309,1.225,0.678,1.548c0.498,0.437,1.176,0.656,2.039,0.656
		c0.928,0,1.644-0.219,2.148-0.656c0.504-0.438,0.846-1.049,1.024-1.836c0.104-0.48,0.152-1.489,0.146-3.029
		c-0.876,1.214-1.967,1.823-3.273,1.823c-1.626,0-2.885-0.69-3.775-2.073c-0.89-1.379-1.336-3.037-1.336-4.969
		c0-1.329,0.204-2.555,0.613-3.68c0.408-1.121,1-1.989,1.775-2.602c0.776-0.611,1.686-0.918,2.734-0.918
		c1.396,0,2.545,0.664,3.451,1.994v-1.68h1.846v12.041c0,2.167-0.186,3.706-0.561,4.61s-0.968,1.62-1.781,2.144
		c-0.813,0.525-1.813,0.789-3.001,0.789c-1.411,0-2.55-0.374-3.418-1.122C178.966,218.309,178.546,217.185,178.577,215.679z
		 M180.234,207.313c0,1.828,0.309,3.16,0.925,4.001c0.616,0.837,1.388,1.257,2.316,1.257c0.92,0,1.692-0.416,2.316-1.25
		c0.623-0.838,0.936-2.146,0.936-3.929c0-1.704-0.321-2.99-0.964-3.856c-0.642-0.865-1.416-1.3-2.32-1.3
		c-0.892,0-1.648,0.429-2.272,1.279C180.547,204.369,180.234,205.635,180.234,207.313z"/>
	<path fill="#002D73" d="M192.206,198.014v-2.713h2.005v2.713H192.206z M192.206,214.526v-13.929h2.005v13.929H192.206z"/>
	<path fill="#002D73" d="M197.085,207.562c0-2.579,0.609-4.489,1.827-5.732c1.016-1.032,2.255-1.547,3.718-1.547
		c1.625,0,2.953,0.627,3.986,1.882c1.032,1.254,1.547,2.988,1.547,5.201c0,1.793-0.228,3.202-0.684,4.229
		c-0.458,1.029-1.121,1.827-1.994,2.394c-0.873,0.568-1.825,0.854-2.855,0.854c-1.656,0-2.994-0.627-4.015-1.876
		C197.596,211.713,197.085,209.915,197.085,207.562z M199.145,207.562c0,1.784,0.33,3.12,0.99,4.007
		c0.662,0.889,1.493,1.331,2.495,1.331c0.995,0,1.821-0.447,2.482-1.337c0.661-0.892,0.993-2.252,0.993-4.079
		c0-1.724-0.334-3.028-0.997-3.916c-0.666-0.886-1.491-1.333-2.478-1.333c-1.002,0-1.833,0.443-2.495,1.326
		C199.475,204.445,199.145,205.777,199.145,207.562z"/>
	<path fill="#002D73" d="M211.083,214.526v-13.929h1.805v1.981c0.868-1.53,2.121-2.295,3.762-2.295c0.714,0,1.368,0.15,1.965,0.452
		c0.598,0.301,1.045,0.697,1.341,1.187c0.297,0.491,0.506,1.072,0.624,1.745c0.074,0.438,0.112,1.203,0.112,2.295v8.565h-2.005
		v-8.472c0-0.962-0.078-1.68-0.233-2.158c-0.156-0.478-0.432-0.859-0.83-1.143c-0.398-0.282-0.862-0.426-1.398-0.426
		c-0.852,0-1.589,0.32-2.21,0.959c-0.621,0.637-0.93,1.848-0.93,3.632v7.606H211.083z"/>
	<path fill="#002D73" d="M232.049,212.808c-0.742,0.743-1.457,1.27-2.143,1.573c-0.688,0.307-1.424,0.461-2.21,0.461
		c-1.298,0-2.297-0.375-2.995-1.122c-0.698-0.748-1.047-1.703-1.047-2.864c0-0.684,0.132-1.308,0.396-1.872
		c0.262-0.562,0.607-1.015,1.035-1.355c0.427-0.342,0.908-0.6,1.443-0.774c0.393-0.123,0.985-0.241,1.781-0.355
		c1.617-0.227,2.81-0.499,3.573-0.811c0.008-0.325,0.012-0.531,0.012-0.618c0-0.961-0.191-1.64-0.569-2.032
		c-0.512-0.534-1.273-0.802-2.282-0.802c-0.943,0-1.639,0.198-2.088,0.584c-0.448,0.39-0.78,1.079-0.994,2.066l-1.962-0.313
		c0.181-0.989,0.473-1.787,0.881-2.396c0.408-0.607,0.998-1.074,1.771-1.402c0.771-0.33,1.667-0.493,2.682-0.493
		c1.011,0,1.83,0.14,2.461,0.419c0.631,0.28,1.094,0.632,1.392,1.056c0.297,0.424,0.503,0.96,0.623,1.607
		c0.066,0.401,0.1,1.127,0.1,2.176v3.147c0,2.195,0.043,3.583,0.128,4.167c0.085,0.58,0.254,1.138,0.506,1.67h-2.094
		C232.242,214.036,232.11,213.463,232.049,212.808z M231.882,207.536c-0.727,0.35-1.818,0.646-3.273,0.893
		c-0.824,0.14-1.408,0.297-1.748,0.472c-0.342,0.174-0.606,0.431-0.791,0.766c-0.185,0.337-0.278,0.71-0.278,1.122
		c0,0.628,0.202,1.155,0.607,1.573c0.405,0.419,0.997,0.63,1.775,0.63c0.773,0,1.458-0.199,2.062-0.597
		c0.601-0.396,1.041-0.942,1.324-1.634c0.215-0.533,0.323-1.318,0.323-2.36V207.536z"/>
	<path fill="#002D73" d="M237.542,214.526v-19.226h2.004v19.226H237.542z"/>
	<path fill="#002D73" d="M251.315,210.04l2.071,0.303c-0.325,1.426-0.931,2.531-1.814,3.318c-0.883,0.786-2.012,1.182-3.385,1.182
		c-1.731,0-3.101-0.628-4.114-1.883c-1.013-1.253-1.52-3.014-1.52-5.279c0-2.343,0.512-4.163,1.535-5.457
		c1.023-1.293,2.352-1.941,3.986-1.941c1.58,0,2.873,0.634,3.875,1.901c1.002,1.269,1.502,3.052,1.502,5.352
		c0,0.141-0.003,0.35-0.012,0.63h-8.816c0.073,1.529,0.441,2.702,1.102,3.516c0.66,0.813,1.485,1.219,2.471,1.219
		c0.735,0,1.363-0.227,1.882-0.683C250.6,211.764,251.012,211.036,251.315,210.04z M244.735,206.225h6.602
		c-0.088-1.171-0.34-2.05-0.756-2.636c-0.64-0.909-1.465-1.364-2.484-1.364c-0.92,0-1.695,0.364-2.321,1.09
		C245.149,204.038,244.803,205.008,244.735,206.225z"/>
	<path fill="#002D73" d="M262.012,219.864v-19.267h1.825v1.811c0.431-0.709,0.917-1.241,1.458-1.593
		c0.541-0.354,1.197-0.532,1.97-0.532c1.01,0,1.901,0.308,2.673,0.918c0.771,0.613,1.354,1.475,1.748,2.589
		c0.394,1.114,0.588,2.338,0.588,3.666c0,1.426-0.215,2.709-0.65,3.849c-0.433,1.142-1.064,2.017-1.892,2.625
		c-0.828,0.606-1.697,0.912-2.61,0.912c-0.669,0-1.27-0.167-1.801-0.499c-0.53-0.333-0.966-0.752-1.307-1.261v6.782H262.012z
		 M263.824,207.639c0,1.793,0.309,3.119,0.926,3.975c0.615,0.856,1.361,1.286,2.236,1.286c0.891,0,1.654-0.442,2.288-1.331
		c0.634-0.887,0.951-2.262,0.951-4.125c0-1.775-0.309-3.104-0.929-3.988c-0.622-0.883-1.359-1.325-2.22-1.325
		c-0.854,0-1.61,0.471-2.266,1.412C264.154,204.481,263.824,205.849,263.824,207.639z"/>
	<path fill="#002D73" d="M283.357,210.04l2.07,0.303c-0.326,1.426-0.93,2.531-1.813,3.318c-0.885,0.786-2.012,1.182-3.386,1.182
		c-1.73,0-3.101-0.628-4.115-1.883c-1.012-1.253-1.518-3.014-1.518-5.279c0-2.343,0.514-4.163,1.535-5.457
		c1.026-1.293,2.354-1.941,3.986-1.941c1.582,0,2.873,0.634,3.875,1.901c1.004,1.269,1.504,3.052,1.504,5.352
		c0,0.141-0.004,0.35-0.013,0.63h-8.816c0.074,1.529,0.441,2.702,1.101,3.516c0.661,0.813,1.487,1.219,2.473,1.219
		c0.735,0,1.363-0.227,1.882-0.683C282.641,211.764,283.054,211.036,283.357,210.04z M276.777,206.225h6.602
		c-0.088-1.171-0.34-2.05-0.756-2.636c-0.64-0.909-1.467-1.364-2.484-1.364c-0.921,0-1.695,0.364-2.321,1.09
		C277.191,204.038,276.845,205.008,276.777,206.225z"/>
	<path fill="#002D73" d="M288.491,214.526v-13.929h1.804v2.111c0.459-0.986,0.885-1.639,1.275-1.954
		c0.39-0.315,0.818-0.471,1.286-0.471c0.674,0,1.361,0.254,2.061,0.761l-0.692,2.189c-0.49-0.34-0.98-0.51-1.47-0.51
		c-0.437,0-0.83,0.154-1.179,0.466c-0.35,0.312-0.598,0.741-0.745,1.291c-0.224,0.84-0.335,1.756-0.335,2.753v7.293H288.491z"/>
	<path fill="#002D73" d="M302.17,214.526v-19.226h2.004v19.226H302.17z"/>
	<path fill="#002D73" d="M315.567,212.808c-0.743,0.743-1.458,1.27-2.144,1.573c-0.687,0.307-1.425,0.461-2.211,0.461
		c-1.299,0-2.296-0.375-2.994-1.122c-0.698-0.748-1.048-1.703-1.048-2.864c0-0.684,0.132-1.308,0.396-1.872
		c0.264-0.562,0.609-1.015,1.037-1.355c0.425-0.342,0.906-0.6,1.44-0.774c0.394-0.123,0.987-0.241,1.782-0.355
		c1.617-0.227,2.809-0.499,3.573-0.811c0.008-0.325,0.012-0.531,0.012-0.618c0-0.961-0.19-1.64-0.567-2.032
		c-0.514-0.534-1.274-0.802-2.284-0.802c-0.939,0-1.638,0.198-2.087,0.584c-0.449,0.39-0.781,1.079-0.995,2.066l-1.961-0.313
		c0.179-0.989,0.472-1.787,0.88-2.396c0.408-0.607,0.999-1.074,1.771-1.402c0.771-0.33,1.665-0.493,2.683-0.493
		c1.009,0,1.828,0.14,2.461,0.419c0.63,0.28,1.093,0.632,1.391,1.056c0.297,0.424,0.505,0.96,0.623,1.607
		c0.068,0.401,0.101,1.127,0.101,2.176v3.147c0,2.195,0.045,3.583,0.129,4.167c0.084,0.58,0.253,1.138,0.505,1.67h-2.093
		C315.76,214.036,315.626,213.463,315.567,212.808z M315.399,207.536c-0.728,0.35-1.819,0.646-3.273,0.893
		c-0.825,0.14-1.407,0.297-1.749,0.472c-0.338,0.174-0.604,0.431-0.789,0.766c-0.186,0.337-0.278,0.71-0.278,1.122
		c0,0.628,0.202,1.155,0.607,1.573c0.404,0.419,0.996,0.63,1.774,0.63c0.773,0,1.459-0.199,2.063-0.597
		c0.599-0.396,1.041-0.942,1.323-1.634c0.214-0.533,0.322-1.318,0.322-2.36V207.536z"/>
	<path fill="#002D73" d="M326.896,214.526v-19.226h6.158c1.08,0,1.91,0.059,2.481,0.181c0.8,0.158,1.475,0.458,2.014,0.899
		c0.544,0.441,0.979,1.059,1.309,1.856c0.331,0.795,0.496,1.67,0.496,2.623c0,1.635-0.442,3.019-1.323,4.151
		c-0.882,1.131-2.479,1.697-4.788,1.697h-4.187v7.818H326.896z M329.057,204.44h4.22c1.395,0,2.383-0.306,2.971-0.917
		c0.587-0.612,0.881-1.474,0.881-2.583c0-0.806-0.169-1.492-0.517-2.068c-0.349-0.572-0.801-0.95-1.364-1.134
		c-0.361-0.113-1.037-0.17-2.014-0.17h-4.177V204.44z"/>
	<path fill="#002D73" d="M342.397,214.526v-13.929h1.803v2.111c0.458-0.986,0.883-1.639,1.272-1.954s0.818-0.471,1.288-0.471
		c0.675,0,1.359,0.254,2.06,0.761l-0.69,2.189c-0.491-0.34-0.979-0.51-1.471-0.51c-0.435,0-0.83,0.154-1.182,0.466
		c-0.346,0.312-0.598,0.741-0.742,1.291c-0.226,0.84-0.335,1.756-0.335,2.753v7.293H342.397z"/>
	<path fill="#002D73" d="M349.837,207.562c0-2.579,0.609-4.489,1.826-5.732c1.015-1.032,2.257-1.547,3.717-1.547
		c1.628,0,2.957,0.627,3.986,1.882c1.031,1.254,1.549,2.988,1.549,5.201c0,1.793-0.227,3.202-0.683,4.229
		c-0.458,1.029-1.124,1.827-1.993,2.394c-0.874,0.568-1.824,0.854-2.859,0.854c-1.652,0-2.991-0.627-4.009-1.876
		C350.348,211.713,349.837,209.915,349.837,207.562z M351.895,207.562c0,1.784,0.331,3.12,0.991,4.007
		c0.663,0.889,1.492,1.331,2.494,1.331c0.996,0,1.825-0.447,2.482-1.337c0.661-0.892,0.995-2.252,0.995-4.079
		c0-1.724-0.334-3.028-1.002-3.916c-0.661-0.886-1.487-1.333-2.476-1.333c-1.002,0-1.831,0.443-2.494,1.326
		C352.226,204.445,351.895,205.777,351.895,207.562z"/>
	<path fill="#002D73" d="M368.207,212.414l0.292,2.087c-0.566,0.139-1.072,0.209-1.517,0.209c-0.727,0-1.29-0.135-1.69-0.407
		c-0.401-0.271-0.685-0.627-0.846-1.068c-0.165-0.442-0.246-1.372-0.246-2.788v-8.014h-1.47v-1.836h1.47v-3.449l1.992-1.417v4.866
		h2.015v1.836h-2.015v8.145c0,0.673,0.033,1.106,0.106,1.297c0.07,0.193,0.185,0.345,0.346,0.46c0.159,0.113,0.386,0.17,0.684,0.17
		C367.551,212.506,367.843,212.477,368.207,212.414z"/>
	<path fill="#002D73" d="M378.834,210.04l2.07,0.303c-0.326,1.426-0.934,2.531-1.813,3.318c-0.885,0.786-2.012,1.182-3.386,1.182
		c-1.729,0-3.102-0.628-4.115-1.883c-1.013-1.253-1.519-3.014-1.519-5.279c0-2.343,0.515-4.163,1.535-5.457
		c1.026-1.293,2.355-1.941,3.986-1.941c1.581,0,2.874,0.634,3.877,1.901c1.001,1.269,1.499,3.052,1.499,5.352
		c0,0.141-0.002,0.35-0.009,0.63h-8.817c0.074,1.529,0.441,2.702,1.103,3.516c0.66,0.813,1.482,1.219,2.47,1.219
		c0.737,0,1.364-0.227,1.883-0.683C378.117,211.764,378.528,211.036,378.834,210.04z M372.255,206.225h6.603
		c-0.088-1.171-0.344-2.05-0.76-2.636c-0.636-0.909-1.465-1.364-2.479-1.364c-0.922,0-1.697,0.364-2.323,1.09
		C372.667,204.038,372.321,205.008,372.255,206.225z"/>
	<path fill="#002D73" d="M382.935,214.526v-1.915l7.523-10.178c-0.851,0.051-1.604,0.081-2.259,0.081h-4.82v-1.917h9.666v1.562
		l-6.402,8.838l-1.238,1.615c0.896-0.078,1.739-0.117,2.528-0.117h5.468v2.032H382.935z"/>
	<path fill="#002D73" d="M395.975,198.014v-2.713h2.001v2.713H395.975z M395.975,214.526v-13.929h2.001v13.929H395.975z"/>
	<path fill="#002D73" d="M400.852,207.562c0-2.579,0.608-4.489,1.826-5.732c1.016-1.032,2.256-1.547,3.717-1.547
		c1.626,0,2.956,0.627,3.989,1.882c1.03,1.254,1.547,2.988,1.547,5.201c0,1.793-0.228,3.202-0.685,4.229
		c-0.458,1.029-1.121,1.827-1.993,2.394c-0.872,0.568-1.823,0.854-2.858,0.854c-1.651,0-2.991-0.627-4.012-1.876
		C401.361,211.713,400.852,209.915,400.852,207.562z M402.911,207.562c0,1.784,0.332,3.12,0.991,4.007
		c0.659,0.889,1.493,1.331,2.492,1.331c0.996,0,1.824-0.447,2.485-1.337c0.66-0.892,0.989-2.252,0.989-4.079
		c0-1.724-0.329-3.028-0.996-3.916c-0.662-0.886-1.488-1.333-2.479-1.333c-0.999,0-1.833,0.443-2.492,1.326
		S402.911,205.777,402.911,207.562z"/>
	<path fill="#002D73" d="M414.849,214.526v-13.929h1.8v1.981c0.87-1.53,2.125-2.295,3.766-2.295c0.713,0,1.367,0.15,1.968,0.452
		c0.596,0.301,1.046,0.697,1.342,1.187c0.293,0.491,0.503,1.072,0.622,1.745c0.071,0.438,0.11,1.203,0.11,2.295v8.565h-2.004v-8.472
		c0-0.962-0.078-1.68-0.232-2.158c-0.158-0.478-0.434-0.859-0.833-1.143c-0.395-0.282-0.861-0.426-1.396-0.426
		c-0.855,0-1.59,0.32-2.208,0.959c-0.621,0.637-0.934,1.848-0.934,3.632v7.606H414.849z"/>
	<path fill="#002D73" d="M436.192,210.04l2.072,0.303c-0.325,1.426-0.931,2.531-1.816,3.318c-0.882,0.786-2.009,1.182-3.385,1.182
		c-1.727,0-3.097-0.628-4.11-1.883c-1.015-1.253-1.521-3.014-1.521-5.279c0-2.343,0.514-4.163,1.535-5.457
		c1.025-1.293,2.355-1.941,3.987-1.941c1.581,0,2.874,0.634,3.877,1.901c0.999,1.269,1.499,3.052,1.499,5.352
		c0,0.141-0.003,0.35-0.009,0.63h-8.82c0.076,1.529,0.443,2.702,1.104,3.516c0.661,0.813,1.485,1.219,2.472,1.219
		c0.734,0,1.363-0.227,1.885-0.683C435.475,211.764,435.889,211.036,436.192,210.04z M429.614,206.225h6.603
		c-0.09-1.171-0.343-2.05-0.759-2.636c-0.636-0.909-1.465-1.364-2.481-1.364c-0.92,0-1.692,0.364-2.321,1.09
		C430.028,204.038,429.682,205.008,429.614,206.225z"/>
	<path fill="#002D73" d="M454.104,214.526v-1.758c-0.751,1.384-1.854,2.074-3.309,2.074c-0.941,0-1.808-0.306-2.599-0.919
		c-0.788-0.612-1.402-1.465-1.835-2.566c-0.437-1.096-0.652-2.356-0.652-3.782c0-1.391,0.196-2.651,0.589-3.784
		c0.396-1.132,0.984-2,1.773-2.603c0.785-0.604,1.663-0.905,2.635-0.905c0.713,0,1.348,0.178,1.903,0.532
		c0.559,0.353,1.012,0.813,1.36,1.383v-6.897h1.994v19.226H454.104z M447.769,207.575c0,1.784,0.321,3.117,0.958,4
		c0.639,0.883,1.392,1.325,2.262,1.325c0.877,0,1.622-0.422,2.229-1.264c0.615-0.845,0.922-2.132,0.922-3.864
		c0-1.906-0.313-3.304-0.938-4.196c-0.622-0.893-1.392-1.34-2.304-1.34c-0.891,0-1.634,0.429-2.233,1.287
		C448.067,204.38,447.769,205.731,447.769,207.575z"/>
	<path fill="#002D73" d="M467.779,210.04l2.072,0.303c-0.328,1.426-0.934,2.531-1.814,3.318c-0.887,0.786-2.013,1.182-3.388,1.182
		c-1.727,0-3.099-0.628-4.111-1.883c-1.013-1.253-1.524-3.014-1.524-5.279c0-2.343,0.516-4.163,1.537-5.457
		c1.026-1.293,2.356-1.941,3.987-1.941c1.584,0,2.873,0.634,3.877,1.901c1.003,1.269,1.502,3.052,1.502,5.352
		c0,0.141-0.004,0.35-0.009,0.63h-8.819c0.072,1.529,0.44,2.702,1.102,3.516c0.66,0.813,1.485,1.219,2.47,1.219
		c0.737,0,1.364-0.227,1.885-0.683C467.063,211.764,467.475,211.036,467.779,210.04z M461.2,206.225h6.603
		c-0.089-1.171-0.344-2.05-0.758-2.636c-0.639-0.909-1.466-1.364-2.48-1.364c-0.92,0-1.696,0.364-2.324,1.09
		C461.612,204.038,461.267,205.008,461.2,206.225z"/>
	<path fill="#002D73" d="M472.895,214.526v-19.226h2.004v19.226H472.895z"/>
	<path fill="#002D73" d="M478.525,214.526v-19.226h2.007v19.226H478.525z"/>
	<path fill="#002D73" d="M484.086,197.842v-2.739h2.149v2.163c0,1.172-0.117,2.017-0.347,2.532
		c-0.318,0.709-0.816,1.242-1.492,1.601l-0.491-0.931c0.401-0.193,0.7-0.495,0.897-0.911s0.308-0.987,0.33-1.714H484.086z"/>
	<path fill="#002D73" d="M488.31,214.526l6.267-19.226h2.33l6.678,19.226h-2.457l-1.906-5.823h-6.826l-1.793,5.823H488.31z
		 M493.021,206.633h5.532l-1.704-5.328c-0.521-1.617-0.908-2.945-1.159-3.986c-0.208,1.232-0.503,2.458-0.882,3.674L493.021,206.633
		z"/>
	<path fill="#002D73" d="M505.623,214.526v-13.929h1.795v1.953c0.37-0.679,0.861-1.228,1.478-1.644
		c0.614-0.416,1.32-0.624,2.104-0.624c0.875,0,1.598,0.214,2.153,0.643c0.565,0.429,0.957,1.026,1.189,1.797
		c0.934-1.626,2.152-2.44,3.652-2.44c1.172,0,2.074,0.383,2.704,1.146c0.631,0.767,0.947,1.943,0.947,3.536v9.561h-1.992v-8.774
		c0-0.943-0.067-1.625-0.195-2.04c-0.13-0.417-0.366-0.75-0.708-1.005c-0.339-0.252-0.742-0.379-1.201-0.379
		c-0.833,0-1.521,0.327-2.072,0.978c-0.548,0.651-0.824,1.693-0.824,3.127v8.093h-2.002v-9.05c0-1.049-0.164-1.835-0.489-2.362
		c-0.33-0.524-0.862-0.786-1.605-0.786c-0.565,0-1.087,0.175-1.563,0.524c-0.482,0.35-0.828,0.86-1.045,1.535
		c-0.216,0.671-0.322,1.644-0.322,2.911v7.228H505.623z"/>
	<path fill="#002D73" d="M527.034,214.526h-1.856v-19.226h2.004v6.858c0.848-1.25,1.924-1.875,3.239-1.875
		c0.728,0,1.413,0.173,2.065,0.517c0.648,0.346,1.184,0.832,1.601,1.458c0.422,0.625,0.747,1.379,0.988,2.261
		c0.233,0.884,0.354,1.829,0.354,2.832c0,2.389-0.498,4.233-1.504,5.536c-1.001,1.304-2.203,1.956-3.605,1.956
		c-1.397,0-2.491-0.688-3.286-2.061V214.526z M527.015,207.457c0,1.672,0.193,2.878,0.578,3.621c0.632,1.214,1.481,1.822,2.56,1.822
		c0.876,0,1.633-0.447,2.27-1.345c0.643-0.896,0.96-2.229,0.96-4.005c0-1.819-0.308-3.162-0.919-4.027
		c-0.612-0.867-1.352-1.299-2.223-1.299c-0.874,0-1.631,0.449-2.27,1.344C527.334,204.465,527.015,205.76,527.015,207.457z"/>
	<path fill="#002D73" d="M538.45,198.014v-2.713h2.004v2.713H538.45z M538.45,214.526v-13.929h2.004v13.929H538.45z"/>
	<path fill="#002D73" d="M552.17,210.04l2.072,0.303c-0.326,1.426-0.932,2.531-1.814,3.318c-0.886,0.786-2.012,1.182-3.386,1.182
		c-1.729,0-3.1-0.628-4.114-1.883c-1.013-1.253-1.521-3.014-1.521-5.279c0-2.343,0.515-4.163,1.537-5.457
		c1.025-1.293,2.356-1.941,3.986-1.941c1.583,0,2.873,0.634,3.878,1.901c1.003,1.269,1.499,3.052,1.499,5.352
		c0,0.141-0.003,0.35-0.006,0.63h-8.821c0.074,1.529,0.441,2.702,1.103,3.516c0.66,0.813,1.484,1.219,2.47,1.219
		c0.737,0,1.364-0.227,1.883-0.683C551.454,211.764,551.865,211.036,552.17,210.04z M545.592,206.225h6.603
		c-0.088-1.171-0.345-2.05-0.758-2.636c-0.639-0.909-1.467-1.364-2.481-1.364c-0.92,0-1.695,0.364-2.324,1.09
		C546.004,204.038,545.657,205.008,545.592,206.225z"/>
	<path fill="#002D73" d="M557.328,214.526v-13.929h1.805v1.981c0.869-1.53,2.124-2.295,3.765-2.295c0.711,0,1.367,0.15,1.963,0.452
		c0.599,0.301,1.047,0.697,1.343,1.187c0.297,0.491,0.505,1.072,0.626,1.745c0.069,0.438,0.109,1.203,0.109,2.295v8.565h-2.005
		v-8.472c0-0.962-0.081-1.68-0.233-2.158c-0.155-0.478-0.434-0.859-0.831-1.143c-0.395-0.282-0.86-0.426-1.397-0.426
		c-0.853,0-1.588,0.32-2.208,0.959c-0.622,0.637-0.934,1.848-0.934,3.632v7.606H557.328z"/>
	<path fill="#002D73" d="M574.954,212.414l0.29,2.087c-0.564,0.139-1.072,0.209-1.516,0.209c-0.728,0-1.292-0.135-1.691-0.407
		c-0.399-0.271-0.686-0.627-0.846-1.068c-0.164-0.442-0.244-1.372-0.244-2.788v-8.014h-1.473v-1.836h1.473v-3.449l1.994-1.417v4.866
		h2.013v1.836h-2.013v8.145c0,0.673,0.03,1.106,0.104,1.297c0.069,0.193,0.184,0.345,0.345,0.46c0.158,0.113,0.386,0.17,0.686,0.17
		C574.297,212.506,574.59,212.477,574.954,212.414z"/>
	<path fill="#002D73" d="M585.578,210.04l2.072,0.303c-0.326,1.426-0.933,2.531-1.815,3.318c-0.884,0.786-2.01,1.182-3.386,1.182
		c-1.728,0-3.098-0.628-4.112-1.883c-1.014-1.253-1.52-3.014-1.52-5.279c0-2.343,0.514-4.163,1.536-5.457
		c1.024-1.293,2.352-1.941,3.984-1.941c1.583,0,2.875,0.634,3.876,1.901c1.003,1.269,1.502,3.052,1.502,5.352
		c0,0.141-0.003,0.35-0.007,0.63h-8.822c0.074,1.529,0.441,2.702,1.102,3.516c0.663,0.813,1.487,1.219,2.474,1.219
		c0.734,0,1.363-0.227,1.883-0.683C584.861,211.764,585.273,211.036,585.578,210.04z M579,206.225h6.603
		c-0.09-1.171-0.345-2.05-0.759-2.636c-0.637-0.909-1.465-1.364-2.482-1.364c-0.919,0-1.691,0.364-2.318,1.09
		C579.415,204.038,579.065,205.008,579,206.225z"/>
</g>
<g>
	<path fill="#007934" d="M389.236,160.471v-20.084h3.279V158.1h12.197v2.371H389.236z"/>
	<path fill="#007934" d="M407.617,150.689c0-3.334,1.102-5.945,3.308-7.831c2.211-1.887,5.058-2.829,8.55-2.829
		c2.286,0,4.348,0.443,6.184,1.329c1.837,0.885,3.232,2.122,4.196,3.705c0.963,1.586,1.444,3.383,1.444,5.392
		c0,2.037-0.505,3.858-1.523,5.466c-1.009,1.607-2.446,2.825-4.304,3.65c-1.856,0.83-3.862,1.239-6.011,1.239
		c-2.331,0-4.418-0.455-6.255-1.369c-1.833-0.913-3.226-2.159-4.172-3.739C408.09,154.123,407.617,152.453,407.617,150.689z
		 M410.996,150.729c0,2.421,0.802,4.328,2.404,5.72c1.605,1.393,3.619,2.089,6.04,2.089c2.467,0,4.496-0.702,6.089-2.109
		c1.592-1.407,2.389-3.401,2.389-5.988c0-1.633-0.342-3.061-1.019-4.28c-0.683-1.219-1.679-2.164-2.992-2.836
		c-1.309-0.672-2.781-1.006-4.42-1.006c-2.316,0-4.313,0.646-5.984,1.937C411.831,145.548,410.996,147.707,410.996,150.729z"/>
	<path fill="#007934" d="M435.419,160.471v-20.084h4.932l5.866,14.222c0.536,1.324,0.932,2.313,1.178,2.972
		c0.281-0.729,0.722-1.804,1.319-3.219l5.931-13.975h4.403v20.084h-3.155v-16.81l-7.196,16.81h-2.958l-7.16-17.098v17.098H435.419z"
		/>
	<path fill="#007934" d="M464.202,160.471v-20.084h9.293c1.891,0,3.409,0.204,4.551,0.608c1.143,0.408,2.038,1.033,2.688,1.878
		c0.646,0.844,0.97,1.729,0.97,2.651c0,0.859-0.286,1.667-0.857,2.425c-0.577,0.759-1.446,1.37-2.606,1.836
		c1.498,0.355,2.651,0.964,3.454,1.821c0.805,0.859,1.21,1.875,1.21,3.043c0,0.941-0.246,1.815-0.735,2.622
		c-0.486,0.809-1.095,1.432-1.814,1.872c-0.722,0.438-1.627,0.769-2.715,0.993c-1.086,0.223-2.413,0.335-3.991,0.335H464.202z
		 M467.482,148.827h5.349c1.455,0,2.498-0.08,3.128-0.234c0.835-0.202,1.462-0.534,1.883-0.999c0.424-0.466,0.635-1.052,0.635-1.754
		c0-0.667-0.196-1.253-0.591-1.761c-0.395-0.508-0.957-0.854-1.688-1.041c-0.734-0.189-1.99-0.281-3.769-0.281h-4.947V148.827z
		 M467.482,158.1h6.165c1.057,0,1.803-0.03,2.229-0.094c0.75-0.109,1.384-0.292,1.892-0.548c0.505-0.256,0.925-0.63,1.248-1.116
		c0.326-0.489,0.489-1.055,0.489-1.693c0-0.75-0.236-1.402-0.708-1.954c-0.47-0.553-1.128-0.939-1.965-1.164
		c-0.844-0.224-2.051-0.336-3.627-0.336h-5.724V158.1z"/>
	<path fill="#007934" d="M484.692,160.471l9.511-20.084h3.53l10.134,20.084h-3.731l-2.892-6.083h-10.353l-2.721,6.083H484.692z
		 M491.834,152.223h8.4l-2.587-5.563c-0.788-1.689-1.375-3.077-1.756-4.166c-0.313,1.289-0.762,2.568-1.335,3.837L491.834,152.223z"
		/>
	<path fill="#007934" d="M510.538,160.471v-20.084h10.977c2.21,0,3.886,0.18,5.033,0.542c1.151,0.36,2.068,0.998,2.753,1.911
		c0.689,0.914,1.029,1.922,1.029,3.029c0,1.423-0.565,2.625-1.704,3.6c-1.136,0.98-2.891,1.601-5.271,1.866
		c0.868,0.337,1.529,0.671,1.98,1c0.956,0.713,1.86,1.604,2.719,2.671l4.307,5.466h-4.121l-3.274-4.178
		c-0.959-1.207-1.745-2.127-2.369-2.766c-0.617-0.641-1.171-1.091-1.662-1.345c-0.489-0.255-0.987-0.433-1.493-0.534
		c-0.373-0.063-0.981-0.096-1.826-0.096h-3.798v8.918H510.538z M513.816,149.251h7.041c1.496,0,2.669-0.127,3.514-0.378
		c0.844-0.25,1.486-0.654,1.928-1.207c0.437-0.549,0.653-1.15,0.653-1.799c0-0.951-0.421-1.732-1.271-2.344
		c-0.854-0.611-2.196-0.919-4.029-0.919h-7.836V149.251z"/>
	<path fill="#007934" d="M535.468,160.471v-20.084h8.527c1.928,0,3.397,0.096,4.413,0.287c1.417,0.266,2.629,0.745,3.627,1.44
		c1.31,0.894,2.283,2.038,2.933,3.431c0.647,1.393,0.973,2.985,0.973,4.775c0,1.525-0.222,2.878-0.659,4.056
		c-0.438,1.178-1.004,2.153-1.692,2.925c-0.683,0.772-1.434,1.38-2.252,1.821c-0.815,0.443-1.799,0.781-2.956,1.009
		c-1.154,0.228-2.481,0.341-3.979,0.341H535.468z M538.744,158.1h5.287c1.633,0,2.912-0.122,3.844-0.37
		c0.928-0.247,1.668-0.592,2.22-1.04c0.774-0.63,1.383-1.478,1.817-2.542c0.436-1.063,0.65-2.353,0.65-3.869
		c0-2.101-0.425-3.716-1.276-4.844c-0.853-1.128-1.883-1.884-3.099-2.266c-0.88-0.276-2.289-0.412-4.239-0.412h-5.204V158.1z"/>
	<path fill="#007934" d="M561.009,160.471v-20.084h3.275v20.084H561.009z"/>
	<path fill="#007934" d="M567.342,160.471l9.511-20.084h3.529l10.134,20.084h-3.733l-2.887-6.083H573.54l-2.719,6.083H567.342z
		 M574.488,152.223h8.392l-2.58-5.563c-0.791-1.689-1.374-3.077-1.759-4.166c-0.316,1.289-0.758,2.568-1.334,3.837L574.488,152.223z
		"/>
</g>
<line fill="none" stroke="#007934" stroke-width="0.5014" x1="55.557" y1="224.844" x2="589.093" y2="224.844"/>
<path fill="#007934" d="M228.593,129.044"/>
<rect y="-1" fill="#002C73" width="16.767" height="55.459"/>
<rect y="70.776" fill="#007833" width="16.848" height="71.364"/>
<rect y="160.898" fill="#7E787B" width="16.848" height="71.259"/>
</svg>
